<svg xmlns="http://www.w3.org/2000/svg" width="307.719" height="269.254" viewBox="0 0 307.719 269.254"><path d="M112.569,250.357,64.5,298.439a9.619,9.619,0,0,1-13.6,0L2.828,250.357a9.624,9.624,0,0,1,6.8-16.416H38.465V41.616A9.616,9.616,0,0,1,48.081,32H67.313a9.616,9.616,0,0,1,9.616,9.616V233.94h28.839A9.624,9.624,0,0,1,112.569,250.357ZM144.243,70.465H298.1a9.616,9.616,0,0,0,9.616-9.616V41.616A9.616,9.616,0,0,0,298.1,32H144.243a9.616,9.616,0,0,0-9.616,9.616V60.849A9.616,9.616,0,0,0,144.243,70.465Zm-9.616,67.313V118.546a9.616,9.616,0,0,1,9.616-9.616H259.638a9.616,9.616,0,0,1,9.616,9.616v19.232a9.616,9.616,0,0,1-9.616,9.616H144.243A9.616,9.616,0,0,1,134.627,137.778Zm0,153.859V272.405a9.616,9.616,0,0,1,9.616-9.616h38.465a9.616,9.616,0,0,1,9.616,9.616v19.232a9.616,9.616,0,0,1-9.616,9.616H144.243A9.616,9.616,0,0,1,134.627,291.638Zm0-76.93V195.476a9.616,9.616,0,0,1,9.616-9.616h76.93a9.616,9.616,0,0,1,9.616,9.616v19.232a9.616,9.616,0,0,1-9.616,9.616h-76.93A9.616,9.616,0,0,1,134.627,214.708Z" transform="translate(0 -32)"/></svg>