<svg xmlns="http://www.w3.org/2000/svg" width="307.719" height="269.254" viewBox="0 0 307.719 269.254"><path d="M2.826,82.9,50.9,34.815a9.619,9.619,0,0,1,13.6,0L112.566,82.9a9.623,9.623,0,0,1-6.8,16.416H76.93V291.638a9.616,9.616,0,0,1-9.616,9.616H48.081a9.616,9.616,0,0,1-9.616-9.616V99.313H9.626A9.624,9.624,0,0,1,2.826,82.9ZM144.243,70.465H298.1a9.616,9.616,0,0,0,9.616-9.616V41.616A9.616,9.616,0,0,0,298.1,32H144.243a9.616,9.616,0,0,0-9.616,9.616V60.848A9.616,9.616,0,0,0,144.243,70.465Zm-9.616,67.313V118.546a9.616,9.616,0,0,1,9.616-9.616H259.638a9.616,9.616,0,0,1,9.616,9.616v19.232a9.616,9.616,0,0,1-9.616,9.616H144.243A9.616,9.616,0,0,1,134.627,137.778Zm0,153.859V272.405a9.616,9.616,0,0,1,9.616-9.616h38.465a9.616,9.616,0,0,1,9.616,9.616v19.232a9.616,9.616,0,0,1-9.616,9.616H144.243A9.616,9.616,0,0,1,134.627,291.638Zm0-76.93V195.475a9.616,9.616,0,0,1,9.616-9.616h76.93a9.616,9.616,0,0,1,9.616,9.616v19.232a9.616,9.616,0,0,1-9.616,9.616h-76.93A9.616,9.616,0,0,1,134.627,214.708Z" transform="translate(0 -32)"/></svg>